<?xml version="1.0" encoding="UTF-8" standalone="no"?>
<!-- Created with Inkscape (http://www.inkscape.org/) -->

<svg
   width="120"
   height="160"
   viewBox="0 0 31.75 42.333334"
   version="1.1"
   id="svg5"
   inkscape:version="1.1.2 (0a00cf5339, 2022-02-04, custom)"
   sodipodi:docname="amphora.svg"
   xmlns:inkscape="http://www.inkscape.org/namespaces/inkscape"
   xmlns:sodipodi="http://sodipodi.sourceforge.net/DTD/sodipodi-0.dtd"
   xmlns="http://www.w3.org/2000/svg"
   xmlns:svg="http://www.w3.org/2000/svg">
  <sodipodi:namedview
     id="namedview7"
     pagecolor="#ffffff"
     bordercolor="#666666"
     borderopacity="1.0"
     inkscape:pageshadow="2"
     inkscape:pageopacity="0"
     inkscape:pagecheckerboard="false"
     inkscape:document-units="px"
     showgrid="true"
     units="px"
     inkscape:zoom="8.1437115"
     inkscape:cx="32.049269"
     inkscape:cy="56.915081"
     inkscape:current-layer="layer1">
    <inkscape:grid
       type="xygrid"
       id="grid42" />
  </sodipodi:namedview>
  <defs
     id="defs2" />
  <g
     inkscape:label="Layer1"
     inkscape:groupmode="layer"
     id="layer1">
    <path
       id="path44"
       style="fill:#808080;fill-opacity:1;stroke:none;stroke-width:4;stroke-linecap:butt;stroke-linejoin:miter;stroke-miterlimit:4;stroke-dasharray:none;stroke-opacity:1"
       inkscape:label="body"
       d="m 40,25 v 5 l 5,5 V 51 H 33 L 22,62 v 16 l 5,5 -17,17 v 35 l 25,25 h 50 l 25,-25 V 100 L 93,83 98,78 V 62 L 87,51 H 75 V 35 l 5,-5 v -5 z m -3,34 h 8 v 6 L 34,76 31,73 v -8 z m 38,0 h 8 l 6,6 v 8 L 86,76 75,65 Z"
       transform="scale(0.26458334)" />
    <path
       style="fill:#ffffff;fill-opacity:1;stroke:none;stroke-width:0.264583px;stroke-linecap:butt;stroke-linejoin:miter;stroke-opacity:1"
       d="m 9.2604176,23.8125 -1.322917,1.322916 -1.3229167,1.322917 H 18.520835 l 10e-7,-1.322917 -1.322918,-1.322916 z"
       id="path2210"
       inkscape:label="decoration"
       sodipodi:nodetypes="ccccccc" />
  </g>
</svg>
