<?xml version="1.0" encoding="UTF-8" standalone="no"?>
<!-- Created with Inkscape (http://www.inkscape.org/) -->

<svg
   width="450"
   height="600"
   viewBox="0 0 119.0625 158.75"
   version="1.1"
   id="svg8976"
   inkscape:version="1.1.2 (0a00cf5339, 2022-02-04, custom)"
   sodipodi:docname="anup.svg"
   xmlns:inkscape="http://www.inkscape.org/namespaces/inkscape"
   xmlns:sodipodi="http://sodipodi.sourceforge.net/DTD/sodipodi-0.dtd"
   xmlns="http://www.w3.org/2000/svg"
   xmlns:svg="http://www.w3.org/2000/svg">
  <sodipodi:namedview
     id="namedview8978"
     pagecolor="#ffffff"
     bordercolor="#666666"
     borderopacity="1.0"
     inkscape:pageshadow="2"
     inkscape:pageopacity="0.0"
     inkscape:pagecheckerboard="false"
     inkscape:document-units="px"
     showgrid="true"
     units="px"
     inkscape:zoom="7.1214138"
     inkscape:cx="225.3766"
     inkscape:cy="205.92821"
     inkscape:current-layer="layer1">
    <inkscape:grid
       type="xygrid"
       id="grid8980" />
  </sodipodi:namedview>
  <defs
     id="defs8973" />
  <g
     inkscape:label="Layer 1"
     inkscape:groupmode="layer"
     id="layer1">
    <path
       style="fill:#808080;fill-opacity:1;stroke:none;stroke-width:0.264583px;stroke-linecap:butt;stroke-linejoin:miter;stroke-opacity:1"
       d="m 21.16667,25.135415 v 3.968751 l 9.260416,9.260416 18.520833,1e-6 1.322917,1.322917 v 9.260416 H 68.79167 L 68.791669,7.9374998 62.177086,1.3229165 H 60.85417 l -1e-6,17.1979165 -2.645832,2.645833 -10e-7,-19.8437495 H 56.88542 l -6.614583,6.6145833 -10e-7,13.2291662 -3.968749,3.96875 H 21.16667 v -1e-6"
       id="path1414"
       sodipodi:nodetypes="ccccccccccccccccccc"
       inkscape:label="head" />
    <path
       style="display:none;fill:#ffffff;fill-opacity:1;stroke:none;stroke-width:0.264583px;stroke-linecap:butt;stroke-linejoin:miter;stroke-opacity:1"
       d="M 34.395831,26.458333 37.041664,23.8125 h 2.645833 l 2.645834,2.645833 v 1.322917 h -6.614584 l -1.322916,-1.322917"
       id="path2576"
       inkscape:label="eye-opened"
       sodipodi:nodetypes="ccccccc" />
    <path
       style="display:inline;fill:#ffffff;fill-opacity:1;stroke:none;stroke-width:0.264583px;stroke-linecap:butt;stroke-linejoin:miter;stroke-opacity:1"
       d="m 50.270835,26.458333 1.322916,-1.322916 h 2.645833 l 1.322917,1.322916 v 1.322917 h -3.96875 l -1.322916,-1.322917"
       id="path3076"
       inkscape:label="eye-closed"
       sodipodi:nodetypes="ccccccc" />
    <path
       style="fill:#808080;fill-opacity:1;stroke:none;stroke-width:0.264583px;stroke-linecap:butt;stroke-linejoin:miter;stroke-opacity:1"
       d="m 35.718754,48.947916 h 47.624999 l 2.645834,2.645834 V 89.958333 L 80.69792,95.25 H 78.052086 V 63.499999 l -5.291666,5.291666 v 56.885415 h -15.875 v -2.64583 h 5.291663 l 2.645837,-2.64584 V 103.1875 l -7.9375,-7.937501 -2.645833,2.645833 v 27.781248 h -15.875 v -2.64583 h 5.291663 l 2.645837,-2.64584 V 95.249999 l -4e-6,-26.458332 -6.614583,-6.614584 h -3.96875 l -2.645829,-2.645834 v -7.9375 z"
       id="path3414"
       sodipodi:nodetypes="cccccccccccccccccccccccccccc"
       inkscape:label="body" />
    <path
       style="fill:#ffffff;fill-opacity:1;stroke:none;stroke-width:0.264583px;stroke-linecap:butt;stroke-linejoin:miter;stroke-opacity:1"
       d="m 48.947916,48.947916 v 2.645833 H 70.114583 V 48.947916 H 48.947916"
       id="path8651"
       inkscape:label="necklace"
       sodipodi:nodetypes="ccccc" />
    <path
       style="opacity:1;fill:#404040;fill-opacity:1;stroke:none;stroke-width:0.264583px;stroke-linecap:butt;stroke-linejoin:miter;stroke-opacity:1"
       d="m 68.791669,19.84375 9.260416,9.260416 v 19.84375 h -7.9375 V 55.5625 h -3.96875 V 38.364583 l 2.645833,-2.645833 z"
       id="path4200"
       sodipodi:nodetypes="ccccccccc"
       inkscape:label="cap-main" />
    <path
       style="fill:#404040;fill-opacity:1;stroke:none;stroke-width:0.264583px;stroke-linecap:butt;stroke-linejoin:miter;stroke-opacity:1"
       d="M 48.947919,38.364583 V 55.5625 h 3.96875 V 42.333333 l -3.96875,-3.96875"
       id="path5137"
       inkscape:label="cap-left"
       sodipodi:nodetypes="ccccc" />
    <path
       style="display:inline;fill:#404040;fill-opacity:1;stroke:none;stroke-width:0.264583px;stroke-linecap:butt;stroke-linejoin:miter;stroke-opacity:1"
       d="m 60.854169,18.520833 h -2.645834 l -2.645833,2.645834 h 5.291667 z"
       id="path6092"
       sodipodi:nodetypes="ccccc"
       inkscape:label="cap-top" />
    <path
       style="display:inline;fill:#404040;fill-opacity:1;stroke:none;stroke-width:0.264583px;stroke-linecap:butt;stroke-linejoin:miter;stroke-opacity:1"
       d="m 46.302083,78.05208 22.489584,10e-7 3.96875,-3.96875 -10e-7,26.458309 H 46.302083 V 78.05208"
       id="path8153"
       inkscape:label="skirt"
       sodipodi:nodetypes="cccccc" />
  </g>
</svg>
