<?xml version="1.0" encoding="UTF-8" standalone="no"?>
<!-- Created with Inkscape (http://www.inkscape.org/) -->

<svg
   width="450"
   height="600"
   viewBox="0 0 119.0625 158.75"
   version="1.1"
   id="svg8976"
   inkscape:version="1.1.2 (0a00cf5339, 2022-02-04, custom)"
   sodipodi:docname="anup-staff.svg"
   xmlns:inkscape="http://www.inkscape.org/namespaces/inkscape"
   xmlns:sodipodi="http://sodipodi.sourceforge.net/DTD/sodipodi-0.dtd"
   xmlns="http://www.w3.org/2000/svg"
   xmlns:svg="http://www.w3.org/2000/svg">
  <sodipodi:namedview
     id="namedview8978"
     pagecolor="#ffffff"
     bordercolor="#666666"
     borderopacity="1.0"
     inkscape:pageshadow="2"
     inkscape:pageopacity="0.0"
     inkscape:pagecheckerboard="false"
     inkscape:document-units="px"
     showgrid="true"
     units="px"
     inkscape:zoom="8"
     inkscape:cx="111.25"
     inkscape:cy="161.4375"
     inkscape:current-layer="layer3"
     inkscape:snap-grids="false">
    <inkscape:grid
       type="xygrid"
       id="grid8980" />
  </sodipodi:namedview>
  <defs
     id="defs8973" />
  <g
     id="layer3"
     inkscape:label="Staff"
     style="display:inline">
    <path
       id="path1773"
       style="fill:#bfbfbf;fill-opacity:1;stroke:none;stroke-width:0.999999px;stroke-linecap:butt;stroke-linejoin:miter;stroke-opacity:1"
       inkscape:label="staff-stick"
       d="m 90,180 v 295 h 10 V 180 Z"
       transform="scale(0.26458333)"
       sodipodi:nodetypes="ccccc" />
    <path
       id="path1181"
       style="fill:#404040;fill-opacity:1;stroke:none;stroke-width:0.999999px;stroke-linecap:butt;stroke-linejoin:miter;stroke-opacity:1"
       inkscape:label="staff-ankh"
       d="M 92.354261,127.64574 70,150 85,165 H 75 v 10 h 15 v 15 h 10 v -15 h 15 V 165 H 105 L 120,150 97.64574,127.64574 Z M 95,140 l 5,5 5,5 -10,10 -5,-5 -5,-5 z"
       transform="scale(0.26458333)"
       sodipodi:nodetypes="cccccccccccccccccccccc" />
  </g>
  <g
     id="layer4"
     inkscape:label="Arm"
     style="display:none">
    <path
       style="fill:#808080;fill-opacity:1;stroke:none;stroke-width:0.264583px;stroke-linecap:butt;stroke-linejoin:miter;stroke-opacity:1"
       d="m 33.072916,51.593749 10e-7,21.166667 -11.90625,11.906251 -1e-6,2.645831 2.645834,2.645835 h 2.645833 l 14.552084,-14.552083 -10e-7,-23.8125 -2.645833,-2.645834 H 35.71875 Z"
       id="path884"
       sodipodi:nodetypes="ccccccccccc"
       inkscape:label="arm" />
  </g>
  <g
     inkscape:label="Torso"
     id="layer1"
     style="display:none">
    <path
       style="display:inline;fill:#808080;fill-opacity:1;stroke:none;stroke-width:0.264583px;stroke-linecap:butt;stroke-linejoin:miter;stroke-opacity:1"
       d="m 35.718754,48.947916 h 47.624999 l 2.645834,2.645834 V 89.958333 L 80.69792,95.25 H 78.052086 V 63.499999 l -5.291666,5.291666 v 56.885415 h -15.875 v -2.64583 h 5.291663 l 2.645837,-2.64584 V 103.1875 l -7.9375,-7.937501 -2.645833,2.645833 v 27.781248 h -15.875 v -2.64583 h 5.291663 l 2.645837,-2.64584 V 95.249999 l -4e-6,-26.458332 -6.614583,-6.614584 -3.96875,-3.96875 -2.645829,-2.645834 v -3.96875 z"
       id="path3414"
       sodipodi:nodetypes="cccccccccccccccccccccccccccc"
       inkscape:label="body" />
    <path
       style="display:inline;fill:#ffffff;fill-opacity:1;stroke:none;stroke-width:0.264583px;stroke-linecap:butt;stroke-linejoin:miter;stroke-opacity:1"
       d="m 48.947916,48.947916 v 2.645833 H 70.114583 V 48.947916 H 48.947916"
       id="path8651"
       inkscape:label="necklace"
       sodipodi:nodetypes="ccccc" />
    <g
       id="g1469"
       inkscape:label="skirt"
       style="display:inline"
       inkscape:groupmode="layer">
      <path
         style="display:inline;fill:#bfbfbf;fill-opacity:1;stroke:none;stroke-width:0.264583px;stroke-linecap:butt;stroke-linejoin:miter;stroke-opacity:1"
         d="m 46.302083,78.05208 22.489584,10e-7 3.96875,-3.96875 -10e-7,26.458309 H 46.302083 V 78.05208"
         id="path8153"
         inkscape:label="skirt-volume"
         sodipodi:nodetypes="cccccc" />
      <path
         style="fill:#404040;fill-opacity:1;stroke:none;stroke-width:0.264583px;stroke-linecap:butt;stroke-linejoin:miter;stroke-opacity:1"
         d="m 46.302083,78.052082 h 22.489583 l 3.96875,-3.96875 v 5.291667 l -2.645833,2.645834 h -23.8125 v -3.968751"
         id="path867"
         sodipodi:nodetypes="ccccccc"
         inkscape:label="skirt-waist" />
    </g>
  </g>
  <g
     id="layer2"
     inkscape:label="Head"
     style="display:none">
    <path
       style="fill:#808080;fill-opacity:1;stroke:none;stroke-width:0.264583px;stroke-linecap:butt;stroke-linejoin:miter;stroke-opacity:1"
       d="m 33.07292,25.135415 v 3.968751 l 9.260416,9.260416 6.614583,1e-6 1.322917,1.322917 v 9.260416 H 68.79167 L 68.791669,7.9374998 62.177086,1.3229165 H 60.85417 l -1e-6,17.1979165 -2.645832,2.645833 -10e-7,-19.8437495 H 56.88542 l -6.614583,6.6145833 -10e-7,13.2291662 -3.968749,3.96875 H 33.07292 v -1e-6"
       id="path1414"
       sodipodi:nodetypes="ccccccccccccccccccc"
       inkscape:label="head" />
    <g
       id="g834"
       inkscape:label="cap"
       inkscape:groupmode="layer">
      <path
         style="opacity:1;fill:#404040;fill-opacity:1;stroke:none;stroke-width:0.264583px;stroke-linecap:butt;stroke-linejoin:miter;stroke-opacity:1"
         d="m 68.791669,19.84375 9.260416,9.260416 v 19.84375 h -7.9375 V 55.5625 h -3.96875 V 38.364583 l 2.645833,-2.645833 z"
         id="path4200"
         sodipodi:nodetypes="ccccccccc"
         inkscape:label="cap-main" />
      <path
         style="fill:#404040;fill-opacity:1;stroke:none;stroke-width:0.264583px;stroke-linecap:butt;stroke-linejoin:miter;stroke-opacity:1"
         d="M 48.947919,38.364583 V 55.5625 h 3.96875 V 42.333333 l -3.96875,-3.96875"
         id="path5137"
         inkscape:label="cap-left"
         sodipodi:nodetypes="ccccc" />
      <path
         style="display:inline;fill:#404040;fill-opacity:1;stroke:none;stroke-width:0.264583px;stroke-linecap:butt;stroke-linejoin:miter;stroke-opacity:1"
         d="m 60.854169,18.520833 h -2.645834 l -2.645833,2.645834 h 5.291667 z"
         id="path6092"
         sodipodi:nodetypes="ccccc"
         inkscape:label="cap-top" />
    </g>
    <path
       style="display:inline;fill:#ffffff;fill-opacity:1;stroke:none;stroke-width:0.264583px;stroke-linecap:butt;stroke-linejoin:miter;stroke-opacity:1"
       d="m 50.270835,26.458333 1.322916,-1.322916 h 2.645833 l 1.322917,1.322916 v 1.322917 h -3.96875 l -1.322916,-1.322917"
       id="path3076"
       inkscape:label="eye-default"
       sodipodi:nodetypes="ccccccc" />
  </g>
  <g
     id="layer6"
     inkscape:label="Eye-opened"
     style="display:none">
    <path
       style="display:inline;fill:#ffffff;fill-opacity:1;stroke:none;stroke-width:0.264583px;stroke-linecap:butt;stroke-linejoin:miter;stroke-opacity:1"
       d="M 50.270832,26.458333 52.916665,23.8125 h 2.645833 l 2.645834,2.645833 v 1.322917 h -6.614584 l -1.322916,-1.322917"
       id="path2576"
       inkscape:label="eye-opened"
       sodipodi:nodetypes="ccccccc" />
  </g>
</svg>
