<?xml version="1.0" encoding="UTF-8" standalone="no"?>
<!-- Created with Inkscape (http://www.inkscape.org/) -->

<svg
   width="300"
   height="300"
   viewBox="0 0 79.374998 79.375002"
   version="1.1"
   id="svg1137"
   inkscape:version="1.1.2 (0a00cf5339, 2022-02-04, custom)"
   sodipodi:docname="cat-head-left.svg"
   inkscape:export-filename="C:\Users\vlach\Dev\Unity\LD50\Assets\Graphics\cat-arm.png"
   inkscape:export-xdpi="96"
   inkscape:export-ydpi="96"
   xmlns:inkscape="http://www.inkscape.org/namespaces/inkscape"
   xmlns:sodipodi="http://sodipodi.sourceforge.net/DTD/sodipodi-0.dtd"
   xmlns="http://www.w3.org/2000/svg"
   xmlns:svg="http://www.w3.org/2000/svg">
  <sodipodi:namedview
     id="namedview1139"
     pagecolor="#ffffff"
     bordercolor="#666666"
     borderopacity="1.0"
     inkscape:pageshadow="2"
     inkscape:pageopacity="0.0"
     inkscape:pagecheckerboard="0"
     inkscape:document-units="px"
     showgrid="true"
     units="px"
     inkscape:zoom="4.5914801"
     inkscape:cx="128.71666"
     inkscape:cy="167.04853"
     inkscape:current-layer="layer2">
    <inkscape:grid
       type="xygrid"
       id="grid1198" />
  </sodipodi:namedview>
  <defs
     id="defs1134" />
  <g
     inkscape:groupmode="layer"
     id="g878"
     inkscape:label="Head-front"
     style="display:none">
    <path
       style="display:inline;fill:#404040;fill-opacity:1;stroke:none;stroke-width:0.264583px;stroke-linecap:butt;stroke-linejoin:miter;stroke-opacity:1"
       d="m 26.458334,23.812504 h -1.322917 v 14.552084 -10e-7 l 3.968751,2.645835 -2e-6,2.645833 h 9.260417 l 10e-7,-2.645834 3.96875,-2.645834 -10e-7,-14.552084 H 41.010417 L 35.71875,29.104171 H 31.75 Z"
       id="path874"
       sodipodi:nodetypes="cccccccccccccc"
       inkscape:label="head" />
    <path
       style="display:inline;fill:#ffffff;fill-opacity:1;stroke:none;stroke-width:0.264583px;stroke-linecap:butt;stroke-linejoin:miter;stroke-opacity:1"
       d="m 37.041666,31.750004 -1.322917,1.322916 v 1.322917 h 2.645834 v -2.645833 h -1.322917"
       id="path876"
       inkscape:label="eye-right"
       sodipodi:nodetypes="cccccc" />
    <path
       style="display:inline;fill:#ffffff;fill-opacity:1;stroke:none;stroke-width:0.264583px;stroke-linecap:butt;stroke-linejoin:miter;stroke-opacity:1"
       d="M 30.427083,31.750001 31.75,33.072917 v 1.322917 h -2.645834 v -2.645833 h 1.322917"
       id="path1659"
       inkscape:label="eye-left"
       sodipodi:nodetypes="cccccc" />
  </g>
  <g
     inkscape:groupmode="layer"
     id="layer2"
     inkscape:label="Head-left"
     style="display:inline">
    <path
       style="display:inline;fill:#404040;fill-opacity:1;stroke:none;stroke-width:0.264583px;stroke-linecap:butt;stroke-linejoin:miter;stroke-opacity:1"
       d="m 19.84375,35.718754 v 2.645833 l 2.645833,2.645834 v -10e-7 l 6.614584,10e-7 -1e-6,5.291667 h 9.260418 V 27.781253 l -3.968751,-3.96875 h -1.322916 v 5.291668 h -6.614584 z"
       id="path1238"
       sodipodi:nodetypes="ccccccccccccc"
       inkscape:label="head" />
    <path
       style="display:inline;fill:#ffffff;fill-opacity:1;stroke:none;stroke-width:0.264583px;stroke-linecap:butt;stroke-linejoin:miter;stroke-opacity:1"
       d="m 26.458333,31.750004 -1.322917,1.322916 v 1.322917 h 2.645834 v -2.645833 h -1.322917"
       id="path2786"
       inkscape:label="eye"
       sodipodi:nodetypes="cccccc" />
  </g>
  <g
     inkscape:label="Main"
     inkscape:groupmode="layer"
     id="layer1"
     style="display:none">
    <path
       style="display:inline;fill:#404040;fill-opacity:1;stroke:none;stroke-width:0.264583px;stroke-linecap:butt;stroke-linejoin:miter;stroke-opacity:1"
       d="m 38.364583,46.302087 h 9.260416 l 11.90625,11.90625 v 15.875 l 2.645833,2.645833 v 2.645833 H 39.6875 V 76.72917 h 3.968748 v -7.937501 l -6.614581,-6.614585 -2.645835,2.645835 1e-6,11.906251 -2.645833,2.645833 -2.645833,10e-7 v -2.645833 l 1.322916,-1.322917 V 58.208338 l -3.968749,-3.96875 V 48.94792 l 2.645833,-2.645833 z"
       id="path3297"
       sodipodi:nodetypes="cccccccccccccccccccccc"
       inkscape:label="body" />
    <path
       style="display:inline;fill:#808080;fill-opacity:1;stroke:none;stroke-width:0.264583px;stroke-linecap:butt;stroke-linejoin:miter;stroke-opacity:1"
       d="m 26.458333,48.947917 v -2.645833 l 2.645833,-2.645833 h 9.260417 v 2.645833 l -2.645833,2.645833 h -9.260417"
       id="path5122"
       inkscape:label="collar"
       sodipodi:nodetypes="ccccccc" />
  </g>
  <g
     inkscape:groupmode="layer"
     id="layer3"
     inkscape:label="Arm"
     style="display:none">
    <path
       style="display:inline;fill:#404040;fill-opacity:1;stroke:none;stroke-width:0.264583px;stroke-linecap:butt;stroke-linejoin:miter;stroke-opacity:1"
       d="m 34.395835,58.208333 -9.260416,9.260418 -6.614583,-10e-7 v -1.322915 l 1e-6,-1.322917 h 3.968749 l 7.9375,-7.9375 z"
       id="path943"
       sodipodi:nodetypes="cccccccc"
       inkscape:label="arm" />
  </g>
</svg>
